<?xml version="1.0" encoding="UTF-8"?>
<svg xmlns="http://www.w3.org/2000/svg" xmlns:xlink="http://www.w3.org/1999/xlink" width="288pt" height="288pt" viewBox="0 0 288 288">
<path fill-rule="nonzero" fill="rgb(73.33374%, 73.33374%, 73.33374%)" fill-opacity="1" d="M 205.570312 234.710938 C 205.570312 233.671875 206.421875 232.820312 207.460938 232.820312 C 208.5 232.820312 209.351562 233.671875 209.351562 234.710938 C 209.351562 235.75 208.5 236.601562 207.460938 236.601562 C 206.421875 236.601562 205.570312 235.75 205.570312 234.710938 "/>
<path fill-rule="nonzero" fill="rgb(73.33374%, 73.33374%, 73.33374%)" fill-opacity="1" d="M 104.691406 214.039062 C 104.691406 213 105.539062 212.148438 106.578125 212.148438 C 107.621094 212.148438 108.46875 213 108.46875 214.039062 C 108.46875 215.078125 107.621094 215.929688 106.578125 215.929688 C 105.539062 215.929688 104.691406 215.078125 104.691406 214.039062 "/>
<path fill-rule="nonzero" fill="rgb(73.33374%, 73.33374%, 73.33374%)" fill-opacity="1" d="M 137.308594 119.429688 C 137.308594 118.390625 138.160156 117.539062 139.199219 117.539062 C 140.238281 117.539062 141.089844 118.390625 141.089844 119.429688 C 141.089844 120.460938 140.238281 121.320312 139.199219 121.320312 C 138.160156 121.320312 137.308594 120.460938 137.308594 119.429688 "/>
<path fill-rule="nonzero" fill="rgb(73.33374%, 73.33374%, 73.33374%)" fill-opacity="1" d="M 252.890625 158.339844 C 252.890625 157.300781 253.738281 156.449219 254.78125 156.449219 C 255.820312 156.449219 256.671875 157.300781 256.671875 158.339844 C 256.671875 159.371094 255.820312 160.230469 254.78125 160.230469 C 253.738281 160.230469 252.890625 159.371094 252.890625 158.339844 "/>
<path fill-rule="nonzero" fill="rgb(73.33374%, 73.33374%, 73.33374%)" fill-opacity="1" d="M 236.621094 99.199219 C 236.621094 98.160156 237.46875 97.308594 238.511719 97.308594 C 239.550781 97.308594 240.398438 98.160156 240.398438 99.199219 C 240.398438 100.238281 239.550781 101.089844 238.511719 101.089844 C 237.46875 101.089844 236.621094 100.238281 236.621094 99.199219 "/>
<path fill-rule="nonzero" fill="rgb(73.33374%, 73.33374%, 73.33374%)" fill-opacity="1" d="M 197.320312 37.371094 C 197.320312 36.328125 198.171875 35.480469 199.210938 35.480469 C 200.25 35.480469 201.101562 36.328125 201.101562 37.371094 C 201.101562 38.410156 200.25 39.261719 199.210938 39.261719 C 198.171875 39.261719 197.320312 38.410156 197.320312 37.371094 "/>
<path fill-rule="nonzero" fill="rgb(73.33374%, 73.33374%, 73.33374%)" fill-opacity="1" d="M 166.5 46.140625 C 166.5 45.101562 167.351562 44.25 168.390625 44.25 C 169.429688 44.25 170.28125 45.101562 170.28125 46.140625 C 170.28125 47.171875 169.429688 48.03125 168.390625 48.03125 C 167.351562 48.03125 166.5 47.171875 166.5 46.140625 "/>
<path fill-rule="nonzero" fill="rgb(73.33374%, 73.33374%, 73.33374%)" fill-opacity="1" d="M 217.578125 168.710938 C 217.578125 167.671875 218.429688 166.820312 219.46875 166.820312 C 220.511719 166.820312 221.359375 167.671875 221.359375 168.710938 C 221.359375 169.75 220.511719 170.601562 219.46875 170.601562 C 218.429688 170.601562 217.578125 169.75 217.578125 168.710938 "/>
<path fill-rule="nonzero" fill="rgb(73.33374%, 73.33374%, 73.33374%)" fill-opacity="1" d="M 258.898438 33.539062 C 258.898438 32.511719 259.75 31.648438 260.789062 31.648438 C 261.828125 31.648438 262.679688 32.511719 262.679688 33.539062 C 262.679688 34.578125 261.828125 35.429688 260.789062 35.429688 C 259.75 35.429688 258.898438 34.578125 258.898438 33.539062 "/>
<path fill-rule="nonzero" fill="rgb(73.33374%, 73.33374%, 73.33374%)" fill-opacity="1" d="M 160.988281 259.21875 C 160.988281 258.179688 161.839844 257.328125 162.878906 257.328125 C 163.921875 257.328125 164.769531 258.179688 164.769531 259.21875 C 164.769531 260.261719 163.921875 261.109375 162.878906 261.109375 C 161.839844 261.109375 160.988281 260.261719 160.988281 259.21875 "/>
<path fill-rule="nonzero" fill="rgb(73.33374%, 73.33374%, 73.33374%)" fill-opacity="1" d="M 174.679688 196.230469 C 174.679688 195.191406 175.53125 194.339844 176.570312 194.339844 C 177.609375 194.339844 178.460938 195.191406 178.460938 196.230469 C 178.460938 197.269531 177.609375 198.121094 176.570312 198.121094 C 175.53125 198.121094 174.679688 197.269531 174.679688 196.230469 "/>
<path fill-rule="nonzero" fill="rgb(73.33374%, 73.33374%, 73.33374%)" fill-opacity="1" d="M 186.960938 163.449219 C 186.960938 162.410156 187.808594 161.558594 188.851562 161.558594 C 189.890625 161.558594 190.738281 162.410156 190.738281 163.449219 C 190.738281 164.488281 189.890625 165.339844 188.851562 165.339844 C 187.808594 165.339844 186.960938 164.488281 186.960938 163.449219 "/>
<path fill-rule="nonzero" fill="rgb(73.33374%, 73.33374%, 73.33374%)" fill-opacity="1" d="M 69.308594 192.011719 C 69.308594 190.96875 70.160156 190.121094 71.199219 190.121094 C 72.238281 190.121094 73.089844 190.96875 73.089844 192.011719 C 73.089844 193.050781 72.238281 193.898438 71.199219 193.898438 C 70.160156 193.898438 69.308594 193.050781 69.308594 192.011719 "/>
<path fill-rule="nonzero" fill="rgb(73.33374%, 73.33374%, 73.33374%)" fill-opacity="1" d="M 203.070312 104.140625 C 203.070312 103.101562 203.921875 102.25 204.960938 102.25 C 206 102.25 206.851562 103.101562 206.851562 104.140625 C 206.851562 105.179688 206 106.03125 204.960938 106.03125 C 203.921875 106.03125 203.070312 105.179688 203.070312 104.140625 "/>
<path fill-rule="nonzero" fill="rgb(73.33374%, 73.33374%, 73.33374%)" fill-opacity="1" d="M 150.289062 73.871094 C 150.289062 72.828125 151.140625 71.980469 152.179688 71.980469 C 153.21875 71.980469 154.070312 72.828125 154.070312 73.871094 C 154.070312 74.910156 153.21875 75.761719 152.179688 75.761719 C 151.140625 75.761719 150.289062 74.910156 150.289062 73.871094 "/>
<path fill-rule="nonzero" fill="rgb(73.33374%, 73.33374%, 73.33374%)" fill-opacity="1" d="M 76.429688 227.46875 C 76.429688 226.429688 77.28125 225.578125 78.320312 225.578125 C 79.359375 225.578125 80.210938 226.429688 80.210938 227.46875 C 80.210938 228.511719 79.359375 229.359375 78.320312 229.359375 C 77.28125 229.359375 76.429688 228.511719 76.429688 227.46875 "/>
<path fill-rule="nonzero" fill="rgb(73.33374%, 73.33374%, 73.33374%)" fill-opacity="1" d="M 134.941406 248.660156 C 134.941406 247.621094 135.789062 246.769531 136.828125 246.769531 C 137.871094 246.769531 138.71875 247.621094 138.71875 248.660156 C 138.71875 249.699219 137.871094 250.550781 136.828125 250.550781 C 135.789062 250.550781 134.941406 249.699219 134.941406 248.660156 "/>
<path fill-rule="nonzero" fill="rgb(73.33374%, 73.33374%, 73.33374%)" fill-opacity="1" d="M 215.078125 78.699219 C 215.078125 77.660156 215.929688 76.808594 216.96875 76.808594 C 218.011719 76.808594 218.859375 77.660156 218.859375 78.699219 C 218.859375 79.738281 218.011719 80.589844 216.96875 80.589844 C 215.929688 80.589844 215.078125 79.738281 215.078125 78.699219 "/>
<path fill-rule="nonzero" fill="rgb(73.33374%, 73.33374%, 73.33374%)" fill-opacity="1" d="M 38.851562 43.871094 C 38.851562 42.828125 39.699219 41.980469 40.738281 41.980469 C 41.78125 41.980469 42.628906 42.828125 42.628906 43.871094 C 42.628906 44.910156 41.78125 45.761719 40.738281 45.761719 C 39.699219 45.761719 38.851562 44.910156 38.851562 43.871094 "/>
<path fill-rule="nonzero" fill="rgb(73.33374%, 73.33374%, 73.33374%)" fill-opacity="1" d="M 112.28125 264 C 112.28125 262.960938 113.128906 262.109375 114.171875 262.109375 C 115.210938 262.109375 116.058594 262.960938 116.058594 264 C 116.058594 265.039062 115.210938 265.890625 114.171875 265.890625 C 113.128906 265.890625 112.28125 265.039062 112.28125 264 "/>
<path fill-rule="nonzero" fill="rgb(73.33374%, 73.33374%, 73.33374%)" fill-opacity="1" d="M 153.730469 132.078125 C 153.730469 131.039062 154.578125 130.191406 155.621094 130.191406 C 156.660156 130.191406 157.511719 131.039062 157.511719 132.078125 C 157.511719 133.121094 156.660156 133.96875 155.621094 133.96875 C 154.578125 133.96875 153.730469 133.121094 153.730469 132.078125 "/>
<path fill-rule="nonzero" fill="rgb(73.33374%, 73.33374%, 73.33374%)" fill-opacity="1" d="M 169.21875 241.621094 C 169.21875 240.578125 170.070312 239.730469 171.109375 239.730469 C 172.148438 239.730469 173 240.578125 173 241.621094 C 173 242.660156 172.148438 243.511719 171.109375 243.511719 C 170.070312 243.511719 169.21875 242.660156 169.21875 241.621094 "/>
<path fill-rule="nonzero" fill="rgb(73.33374%, 73.33374%, 73.33374%)" fill-opacity="1" d="M 117.128906 199.390625 C 117.128906 198.351562 117.980469 197.5 119.019531 197.5 C 120.058594 197.5 120.910156 198.351562 120.910156 199.390625 C 120.910156 200.429688 120.058594 201.28125 119.019531 201.28125 C 117.980469 201.28125 117.128906 200.429688 117.128906 199.390625 "/>
<path fill-rule="nonzero" fill="rgb(73.33374%, 73.33374%, 73.33374%)" fill-opacity="1" d="M 97.371094 237.339844 C 97.371094 236.300781 98.21875 235.449219 99.261719 235.449219 C 100.300781 235.449219 101.148438 236.300781 101.148438 237.339844 C 101.148438 238.378906 100.300781 239.230469 99.261719 239.230469 C 98.21875 239.230469 97.371094 238.378906 97.371094 237.339844 "/>
<path fill-rule="nonzero" fill="rgb(73.33374%, 73.33374%, 73.33374%)" fill-opacity="1" d="M 71.640625 35.25 C 71.640625 34.210938 72.488281 33.359375 73.53125 33.359375 C 74.558594 33.359375 75.421875 34.210938 75.421875 35.25 C 75.421875 36.289062 74.558594 37.140625 73.53125 37.140625 C 72.488281 37.140625 71.640625 36.289062 71.640625 35.25 "/>
<path fill-rule="nonzero" fill="rgb(73.33374%, 73.33374%, 73.33374%)" fill-opacity="1" d="M 34.601562 232.980469 C 34.601562 231.941406 35.449219 231.089844 36.488281 231.089844 C 37.53125 231.089844 38.378906 231.941406 38.378906 232.980469 C 38.378906 234.019531 37.53125 234.871094 36.488281 234.871094 C 35.449219 234.871094 34.601562 234.019531 34.601562 232.980469 "/>
<path fill-rule="nonzero" fill="rgb(73.33374%, 73.33374%, 73.33374%)" fill-opacity="1" d="M 231.550781 150.558594 C 231.550781 149.519531 232.398438 148.671875 233.441406 148.671875 C 234.480469 148.671875 235.328125 149.519531 235.328125 150.558594 C 235.328125 151.601562 234.480469 152.449219 233.441406 152.449219 C 232.398438 152.449219 231.550781 151.601562 231.550781 150.558594 "/>
<path fill-rule="nonzero" fill="rgb(73.33374%, 73.33374%, 73.33374%)" fill-opacity="1" d="M 23.851562 250.988281 C 23.851562 249.949219 24.699219 249.101562 25.738281 249.101562 C 26.78125 249.101562 27.628906 249.949219 27.628906 250.988281 C 27.628906 252.03125 26.78125 252.878906 25.738281 252.878906 C 24.699219 252.878906 23.851562 252.03125 23.851562 250.988281 "/>
<path fill-rule="nonzero" fill="rgb(73.33374%, 73.33374%, 73.33374%)" fill-opacity="1" d="M 255.328125 90.980469 C 255.328125 89.941406 256.179688 89.089844 257.21875 89.089844 C 258.261719 89.089844 259.109375 89.941406 259.109375 90.980469 C 259.109375 92.019531 258.261719 92.871094 257.21875 92.871094 C 256.179688 92.871094 255.328125 92.019531 255.328125 90.980469 "/>
<path fill-rule="nonzero" fill="rgb(73.33374%, 73.33374%, 73.33374%)" fill-opacity="1" d="M 124.929688 222.589844 C 124.929688 221.550781 125.789062 220.699219 126.820312 220.699219 C 127.859375 220.699219 128.710938 221.550781 128.710938 222.589844 C 128.710938 223.621094 127.859375 224.480469 126.820312 224.480469 C 125.789062 224.480469 124.929688 223.621094 124.929688 222.589844 "/>
<path fill-rule="nonzero" fill="rgb(73.33374%, 73.33374%, 73.33374%)" fill-opacity="1" d="M 192.011719 217.140625 C 192.011719 216.101562 192.859375 215.25 193.898438 215.25 C 194.929688 215.25 195.789062 216.101562 195.789062 217.140625 C 195.789062 218.179688 194.929688 219.03125 193.898438 219.03125 C 192.859375 219.03125 192.011719 218.179688 192.011719 217.140625 "/>
<path fill-rule="nonzero" fill="rgb(73.33374%, 73.33374%, 73.33374%)" fill-opacity="1" d="M 74.371094 114.578125 C 74.371094 113.539062 75.21875 112.691406 76.261719 112.691406 C 77.300781 112.691406 78.148438 113.539062 78.148438 114.578125 C 78.148438 115.621094 77.300781 116.46875 76.261719 116.46875 C 75.21875 116.46875 74.371094 115.621094 74.371094 114.578125 "/>
<path fill-rule="nonzero" fill="rgb(73.33374%, 73.33374%, 73.33374%)" fill-opacity="1" d="M 63.660156 134.660156 C 63.660156 133.621094 64.511719 132.769531 65.550781 132.769531 C 66.589844 132.769531 67.441406 133.621094 67.441406 134.660156 C 67.441406 135.699219 66.589844 136.550781 65.550781 136.550781 C 64.511719 136.550781 63.660156 135.699219 63.660156 134.660156 "/>
<path fill-rule="nonzero" fill="rgb(73.33374%, 73.33374%, 73.33374%)" fill-opacity="1" d="M 126.898438 81.671875 C 126.898438 80.628906 127.75 79.78125 128.789062 79.78125 C 129.828125 79.78125 130.679688 80.628906 130.679688 81.671875 C 130.679688 82.710938 129.828125 83.558594 128.789062 83.558594 C 127.75 83.558594 126.898438 82.710938 126.898438 81.671875 "/>
<path fill-rule="nonzero" fill="rgb(73.33374%, 73.33374%, 73.33374%)" fill-opacity="1" d="M 79.769531 70.960938 C 79.769531 69.921875 80.621094 69.070312 81.660156 69.070312 C 82.699219 69.070312 83.550781 69.921875 83.550781 70.960938 C 83.550781 72 82.699219 72.851562 81.660156 72.851562 C 80.621094 72.851562 79.769531 72 79.769531 70.960938 "/>
<path fill-rule="nonzero" fill="rgb(73.33374%, 73.33374%, 73.33374%)" fill-opacity="1" d="M 66.949219 84.769531 C 66.949219 83.730469 67.800781 82.878906 68.839844 82.878906 C 69.878906 82.878906 70.730469 83.730469 70.730469 84.769531 C 70.730469 85.808594 69.878906 86.660156 68.839844 86.660156 C 67.800781 86.660156 66.949219 85.808594 66.949219 84.769531 "/>
<path fill-rule="nonzero" fill="rgb(73.33374%, 73.33374%, 73.33374%)" fill-opacity="1" d="M 249.929688 211.75 C 249.929688 210.710938 250.78125 209.859375 251.820312 209.859375 C 252.859375 209.859375 253.710938 210.710938 253.710938 211.75 C 253.710938 212.789062 252.859375 213.640625 251.820312 213.640625 C 250.78125 213.640625 249.929688 212.789062 249.929688 211.75 "/>
<path fill-rule="nonzero" fill="rgb(73.33374%, 73.33374%, 73.33374%)" fill-opacity="1" d="M 207.699219 51.648438 C 207.699219 50.609375 208.558594 49.761719 209.589844 49.761719 C 210.628906 49.761719 211.480469 50.609375 211.480469 51.648438 C 211.480469 52.691406 210.628906 53.539062 209.589844 53.539062 C 208.558594 53.539062 207.699219 52.691406 207.699219 51.648438 "/>
<path fill-rule="nonzero" fill="rgb(73.33374%, 73.33374%, 73.33374%)" fill-opacity="1" d="M 184.25 252.769531 C 184.25 251.730469 185.101562 250.878906 186.140625 250.878906 C 187.179688 250.878906 188.03125 251.730469 188.03125 252.769531 C 188.03125 253.808594 187.179688 254.660156 186.140625 254.660156 C 185.101562 254.660156 184.25 253.808594 184.25 252.769531 "/>
<path fill-rule="nonzero" fill="rgb(73.33374%, 73.33374%, 73.33374%)" fill-opacity="1" d="M 210.558594 137.320312 C 210.558594 136.28125 211.410156 135.429688 212.449219 135.429688 C 213.488281 135.429688 214.339844 136.28125 214.339844 137.320312 C 214.339844 138.359375 213.488281 139.210938 212.449219 139.210938 C 211.410156 139.210938 210.558594 138.359375 210.558594 137.320312 "/>
<path fill-rule="nonzero" fill="rgb(73.33374%, 73.33374%, 73.33374%)" fill-opacity="1" d="M 145.480469 153.671875 C 145.480469 152.628906 146.328125 151.78125 147.371094 151.78125 C 148.410156 151.78125 149.261719 152.628906 149.261719 153.671875 C 149.261719 154.710938 148.410156 155.558594 147.371094 155.558594 C 146.328125 155.558594 145.480469 154.710938 145.480469 153.671875 "/>
<path fill-rule="nonzero" fill="rgb(73.33374%, 73.33374%, 73.33374%)" fill-opacity="1" d="M 239.511719 181.308594 C 239.511719 180.269531 240.359375 179.421875 241.398438 179.421875 C 242.429688 179.421875 243.289062 180.269531 243.289062 181.308594 C 243.289062 182.351562 242.429688 183.199219 241.398438 183.199219 C 240.359375 183.199219 239.511719 182.351562 239.511719 181.308594 "/>
<path fill-rule="nonzero" fill="rgb(73.33374%, 73.33374%, 73.33374%)" fill-opacity="1" d="M 82.25 204.660156 C 82.25 203.621094 83.101562 202.769531 84.140625 202.769531 C 85.179688 202.769531 86.03125 203.621094 86.03125 204.660156 C 86.03125 205.699219 85.179688 206.550781 84.140625 206.550781 C 83.101562 206.550781 82.25 205.699219 82.25 204.660156 "/>
<path fill-rule="nonzero" fill="rgb(73.33374%, 73.33374%, 73.33374%)" fill-opacity="1" d="M 171.589844 112 C 171.589844 110.960938 172.441406 110.109375 173.480469 110.109375 C 174.519531 110.109375 175.371094 110.960938 175.371094 112 C 175.371094 113.039062 174.519531 113.890625 173.480469 113.890625 C 172.441406 113.890625 171.589844 113.039062 171.589844 112 "/>
<path fill-rule="nonzero" fill="rgb(73.33374%, 73.33374%, 73.33374%)" fill-opacity="1" d="M 182.238281 63.371094 C 182.238281 62.339844 183.089844 61.480469 184.128906 61.480469 C 185.171875 61.480469 186.019531 62.339844 186.019531 63.371094 C 186.019531 64.410156 185.171875 65.261719 184.128906 65.261719 C 183.089844 65.261719 182.238281 64.410156 182.238281 63.371094 "/>
<path fill-rule="nonzero" fill="rgb(73.33374%, 73.33374%, 73.33374%)" fill-opacity="1" d="M 61.328125 244.21875 C 61.328125 243.179688 62.179688 242.328125 63.21875 242.328125 C 64.261719 242.328125 65.109375 243.179688 65.109375 244.21875 C 65.109375 245.261719 64.261719 246.109375 63.21875 246.109375 C 62.179688 246.109375 61.328125 245.261719 61.328125 244.21875 "/>
<path fill-rule="nonzero" fill="rgb(73.33374%, 73.33374%, 73.33374%)" fill-opacity="1" d="M 31.820312 156.210938 C 31.820312 155.171875 32.671875 154.320312 33.710938 154.320312 C 34.75 154.320312 35.601562 155.171875 35.601562 156.210938 C 35.601562 157.25 34.75 158.101562 33.710938 158.101562 C 32.671875 158.101562 31.820312 157.25 31.820312 156.210938 "/>
<path fill-rule="nonzero" fill="rgb(73.33374%, 73.33374%, 73.33374%)" fill-opacity="1" d="M 224.71875 116.75 C 224.71875 115.710938 225.570312 114.859375 226.609375 114.859375 C 227.648438 114.859375 228.5 115.710938 228.5 116.75 C 228.5 117.789062 227.648438 118.640625 226.609375 118.640625 C 225.570312 118.640625 224.71875 117.789062 224.71875 116.75 "/>
<path fill-rule="nonzero" fill="rgb(73.33374%, 73.33374%, 73.33374%)" fill-opacity="1" d="M 47.410156 143.25 C 47.410156 142.210938 48.261719 141.359375 49.300781 141.359375 C 50.339844 141.359375 51.191406 142.210938 51.191406 143.25 C 51.191406 144.289062 50.339844 145.140625 49.300781 145.140625 C 48.261719 145.140625 47.410156 144.289062 47.410156 143.25 "/>
<path fill-rule="nonzero" fill="rgb(73.33374%, 73.33374%, 73.33374%)" fill-opacity="1" d="M 156.570312 207.738281 C 156.570312 206.699219 157.429688 205.851562 158.460938 205.851562 C 159.5 205.851562 160.351562 206.699219 160.351562 207.738281 C 160.351562 208.78125 159.5 209.628906 158.460938 209.628906 C 157.429688 209.628906 156.570312 208.78125 156.570312 207.738281 "/>
<path fill-rule="nonzero" fill="rgb(73.33374%, 73.33374%, 73.33374%)" fill-opacity="1" d="M 92.859375 179.28125 C 92.859375 178.238281 93.710938 177.390625 94.75 177.390625 C 95.789062 177.390625 96.640625 178.238281 96.640625 179.28125 C 96.640625 180.320312 95.789062 181.171875 94.75 181.171875 C 93.710938 181.171875 92.859375 180.320312 92.859375 179.28125 "/>
<path fill-rule="nonzero" fill="rgb(73.33374%, 73.33374%, 73.33374%)" fill-opacity="1" d="M 133.191406 56.71875 C 133.191406 55.679688 134.039062 54.828125 135.078125 54.828125 C 136.121094 54.828125 136.96875 55.679688 136.96875 56.71875 C 136.96875 57.75 136.121094 58.609375 135.078125 58.609375 C 134.039062 58.609375 133.191406 57.75 133.191406 56.71875 "/>
<path fill-rule="nonzero" fill="rgb(73.33374%, 73.33374%, 73.33374%)" fill-opacity="1" d="M 29.679688 61.160156 C 29.679688 60.121094 30.53125 59.269531 31.570312 59.269531 C 32.609375 59.269531 33.460938 60.121094 33.460938 61.160156 C 33.460938 62.199219 32.609375 63.050781 31.570312 63.050781 C 30.53125 63.050781 29.679688 62.199219 29.679688 61.160156 "/>
<path fill-rule="nonzero" fill="rgb(73.33374%, 73.33374%, 73.33374%)" fill-opacity="1" d="M 213.179688 262.519531 C 213.179688 261.488281 214.03125 260.628906 215.070312 260.628906 C 216.101562 260.628906 216.960938 261.488281 216.960938 262.519531 C 216.960938 263.558594 216.101562 264.410156 215.070312 264.410156 C 214.03125 264.410156 213.179688 263.558594 213.179688 262.519531 "/>
<path fill-rule="nonzero" fill="rgb(73.33374%, 73.33374%, 73.33374%)" fill-opacity="1" d="M 121.980469 140.128906 C 121.980469 139.089844 122.828125 138.238281 123.871094 138.238281 C 124.910156 138.238281 125.761719 139.089844 125.761719 140.128906 C 125.761719 141.171875 124.910156 142.019531 123.871094 142.019531 C 122.828125 142.019531 121.980469 141.171875 121.980469 140.128906 "/>
<path fill-rule="nonzero" fill="rgb(73.33374%, 73.33374%, 73.33374%)" fill-opacity="1" d="M 102.53125 24 C 102.53125 22.960938 103.378906 22.109375 104.421875 22.109375 C 105.460938 22.109375 106.308594 22.960938 106.308594 24 C 106.308594 25.039062 105.460938 25.890625 104.421875 25.890625 C 103.378906 25.890625 102.53125 25.039062 102.53125 24 "/>
<path fill-rule="nonzero" fill="rgb(73.33374%, 73.33374%, 73.33374%)" fill-opacity="1" d="M 22.109375 173.828125 C 22.109375 172.789062 22.960938 171.941406 24 171.941406 C 25.039062 171.941406 25.890625 172.789062 25.890625 173.828125 C 25.890625 174.871094 25.039062 175.71875 24 175.71875 C 22.960938 175.71875 22.109375 174.871094 22.109375 173.828125 "/>
<path fill-rule="nonzero" fill="rgb(73.33374%, 73.33374%, 73.33374%)" fill-opacity="1" d="M 227.058594 246.269531 C 227.058594 245.230469 227.910156 244.378906 228.949219 244.378906 C 229.988281 244.378906 230.839844 245.230469 230.839844 246.269531 C 230.839844 247.308594 229.988281 248.160156 228.949219 248.160156 C 227.910156 248.160156 227.058594 247.308594 227.058594 246.269531 "/>
<path fill-rule="nonzero" fill="rgb(73.33374%, 73.33374%, 73.33374%)" fill-opacity="1" d="M 107.289062 66.011719 C 107.289062 64.96875 108.140625 64.121094 109.179688 64.121094 C 110.21875 64.121094 111.070312 64.96875 111.070312 66.011719 C 111.070312 67.050781 110.21875 67.898438 109.179688 67.898438 C 108.140625 67.898438 107.289062 67.050781 107.289062 66.011719 "/>
<path fill-rule="nonzero" fill="rgb(73.33374%, 73.33374%, 73.33374%)" fill-opacity="1" d="M 220.28125 29.039062 C 220.28125 28.011719 221.128906 27.148438 222.171875 27.148438 C 223.210938 27.148438 224.058594 28.011719 224.058594 29.039062 C 224.058594 30.078125 223.210938 30.929688 222.171875 30.929688 C 221.128906 30.929688 220.28125 30.078125 220.28125 29.039062 "/>
<path fill-rule="nonzero" fill="rgb(73.33374%, 73.33374%, 73.33374%)" fill-opacity="1" d="M 189.691406 87.109375 C 189.691406 86.070312 190.539062 85.21875 191.578125 85.21875 C 192.621094 85.21875 193.46875 86.070312 193.46875 87.109375 C 193.46875 88.148438 192.621094 89 191.578125 89 C 190.539062 89 189.691406 88.148438 189.691406 87.109375 "/>
<path fill-rule="nonzero" fill="rgb(73.33374%, 73.33374%, 73.33374%)" fill-opacity="1" d="M 142.859375 31.511719 C 142.859375 30.46875 143.710938 29.621094 144.75 29.621094 C 145.78125 29.621094 146.640625 30.46875 146.640625 31.511719 C 146.640625 32.550781 145.78125 33.398438 144.75 33.398438 C 143.710938 33.398438 142.859375 32.550781 142.859375 31.511719 "/>
<path fill-rule="nonzero" fill="rgb(73.33374%, 73.33374%, 73.33374%)" fill-opacity="1" d="M 222.191406 202.371094 C 222.191406 201.328125 223.039062 200.480469 224.078125 200.480469 C 225.121094 200.480469 225.96875 201.328125 225.96875 202.371094 C 225.96875 203.410156 225.121094 204.261719 224.078125 204.261719 C 223.039062 204.261719 222.191406 203.410156 222.191406 202.371094 "/>
<path fill-rule="nonzero" fill="rgb(73.33374%, 73.33374%, 73.33374%)" fill-opacity="1" d="M 43.640625 76.671875 C 43.640625 75.628906 44.488281 74.78125 45.53125 74.78125 C 46.570312 74.78125 47.421875 75.628906 47.421875 76.671875 C 47.421875 77.710938 46.570312 78.558594 45.53125 78.558594 C 44.488281 78.558594 43.640625 77.710938 43.640625 76.671875 "/>
<path fill-rule="nonzero" fill="rgb(73.33374%, 73.33374%, 73.33374%)" fill-opacity="1" d="M 85.351562 148.558594 C 85.351562 147.53125 86.199219 146.671875 87.238281 146.671875 C 88.28125 146.671875 89.128906 147.53125 89.128906 148.558594 C 89.128906 149.601562 88.28125 150.449219 87.238281 150.449219 C 86.199219 150.449219 85.351562 149.601562 85.351562 148.558594 "/>
<path fill-rule="nonzero" fill="rgb(73.33374%, 73.33374%, 73.33374%)" fill-opacity="1" d="M 244.078125 129.410156 C 244.078125 128.371094 244.929688 127.519531 245.96875 127.519531 C 247.011719 127.519531 247.859375 128.371094 247.859375 129.410156 C 247.859375 130.449219 247.011719 131.300781 245.96875 131.300781 C 244.929688 131.300781 244.078125 130.449219 244.078125 129.410156 "/>
<path fill-rule="nonzero" fill="rgb(73.33374%, 73.33374%, 73.33374%)" fill-opacity="1" d="M 245.96875 256.921875 C 245.96875 255.878906 246.820312 255.03125 247.859375 255.03125 C 248.898438 255.03125 249.75 255.878906 249.75 256.921875 C 249.75 257.960938 248.898438 258.808594 247.859375 258.808594 C 246.820312 258.808594 245.96875 257.960938 245.96875 256.921875 "/>
<path fill-rule="nonzero" fill="rgb(73.33374%, 73.33374%, 73.33374%)" fill-opacity="1" d="M 241.390625 42.398438 C 241.390625 41.359375 242.238281 40.511719 243.28125 40.511719 C 244.320312 40.511719 245.171875 41.359375 245.171875 42.398438 C 245.171875 43.441406 244.320312 44.289062 243.28125 44.289062 C 242.238281 44.289062 241.390625 43.441406 241.390625 42.398438 "/>
<path fill-rule="nonzero" fill="rgb(73.33374%, 73.33374%, 73.33374%)" fill-opacity="1" d="M 109.679688 160.511719 C 109.679688 159.46875 110.53125 158.621094 111.570312 158.621094 C 112.609375 158.621094 113.460938 159.46875 113.460938 160.511719 C 113.460938 161.539062 112.609375 162.398438 111.570312 162.398438 C 110.53125 162.398438 109.679688 161.539062 109.679688 160.511719 "/>
<path fill-rule="nonzero" fill="rgb(73.33374%, 73.33374%, 73.33374%)" fill-opacity="1" d="M 260.449219 193.578125 C 260.449219 192.539062 261.300781 191.691406 262.339844 191.691406 C 263.378906 191.691406 264.230469 192.539062 264.230469 193.578125 C 264.230469 194.621094 263.378906 195.46875 262.339844 195.46875 C 261.300781 195.46875 260.449219 194.621094 260.449219 193.578125 "/>
<path fill-rule="nonzero" fill="rgb(73.33374%, 73.33374%, 73.33374%)" fill-opacity="1" d="M 199.890625 186.089844 C 199.890625 185.058594 200.738281 184.199219 201.78125 184.199219 C 202.820312 184.199219 203.671875 185.058594 203.671875 186.089844 C 203.671875 187.128906 202.820312 187.980469 201.78125 187.980469 C 200.738281 187.980469 199.890625 187.128906 199.890625 186.089844 "/>
<path fill-rule="nonzero" fill="rgb(73.33374%, 73.33374%, 73.33374%)" fill-opacity="1" d="M 36.539062 122.058594 C 36.539062 121.019531 37.390625 120.171875 38.429688 120.171875 C 39.46875 120.171875 40.320312 121.019531 40.320312 122.058594 C 40.320312 123.101562 39.46875 123.949219 38.429688 123.949219 C 37.390625 123.949219 36.539062 123.101562 36.539062 122.058594 "/>
<path fill-rule="nonzero" fill="rgb(73.33374%, 73.33374%, 73.33374%)" fill-opacity="1" d="M 159.238281 96.339844 C 159.238281 95.300781 160.089844 94.449219 161.128906 94.449219 C 162.171875 94.449219 163.019531 95.300781 163.019531 96.339844 C 163.019531 97.378906 162.171875 98.230469 161.128906 98.230469 C 160.089844 98.230469 159.238281 97.378906 159.238281 96.339844 "/>
<path fill-rule="nonzero" fill="rgb(73.33374%, 73.33374%, 73.33374%)" fill-opacity="1" d="M 148.339844 230.519531 C 148.339844 229.480469 149.191406 228.628906 150.230469 228.628906 C 151.269531 228.628906 152.121094 229.480469 152.121094 230.519531 C 152.121094 231.558594 151.269531 232.410156 150.230469 232.410156 C 149.191406 232.410156 148.339844 231.558594 148.339844 230.519531 "/>
<path fill-rule="nonzero" fill="rgb(73.33374%, 73.33374%, 73.33374%)" fill-opacity="1" d="M 49.710938 27.511719 C 49.710938 26.46875 50.558594 25.621094 51.601562 25.621094 C 52.628906 25.621094 53.488281 26.46875 53.488281 27.511719 C 53.488281 28.550781 52.628906 29.398438 51.601562 29.398438 C 50.558594 29.398438 49.710938 28.550781 49.710938 27.511719 "/>
<path fill-rule="nonzero" fill="rgb(73.33374%, 73.33374%, 73.33374%)" fill-opacity="1" d="M 140.460938 189.179688 C 140.460938 188.140625 141.308594 187.289062 142.351562 187.289062 C 143.390625 187.289062 144.238281 188.140625 144.238281 189.179688 C 144.238281 190.21875 143.390625 191.070312 142.351562 191.070312 C 141.308594 191.070312 140.460938 190.21875 140.460938 189.179688 "/>
<path fill-rule="nonzero" fill="rgb(73.33374%, 73.33374%, 73.33374%)" fill-opacity="1" d="M 87.78125 255.21875 C 87.78125 254.179688 88.640625 253.328125 89.671875 253.328125 C 90.710938 253.328125 91.558594 254.179688 91.558594 255.21875 C 91.558594 256.261719 90.710938 257.109375 89.671875 257.109375 C 88.640625 257.109375 87.78125 256.261719 87.78125 255.21875 "/>
<path fill-rule="nonzero" fill="rgb(73.33374%, 73.33374%, 73.33374%)" fill-opacity="1" d="M 89.949219 93.410156 C 89.949219 92.371094 90.800781 91.519531 91.839844 91.519531 C 92.878906 91.519531 93.730469 92.371094 93.730469 93.410156 C 93.730469 94.449219 92.878906 95.300781 91.839844 95.300781 C 90.800781 95.300781 89.949219 94.449219 89.949219 93.410156 "/>
<path fill-rule="nonzero" fill="rgb(73.33374%, 73.33374%, 73.33374%)" fill-opacity="1" d="M 27.699219 209.878906 C 27.699219 208.839844 28.550781 207.988281 29.589844 207.988281 C 30.628906 207.988281 31.480469 208.839844 31.480469 209.878906 C 31.480469 210.921875 30.628906 211.769531 29.589844 211.769531 C 28.550781 211.769531 27.699219 210.921875 27.699219 209.878906 "/>
<path fill-rule="nonzero" fill="rgb(73.33374%, 73.33374%, 73.33374%)" fill-opacity="1" d="M 99.898438 127.109375 C 99.898438 126.070312 100.75 125.21875 101.789062 125.21875 C 102.828125 125.21875 103.679688 126.070312 103.679688 127.109375 C 103.679688 128.148438 102.828125 129 101.789062 129 C 100.75 129 99.898438 128.148438 99.898438 127.109375 "/>
<path fill-rule="nonzero" fill="rgb(73.33374%, 73.33374%, 73.33374%)" fill-opacity="1" d="M 95.089844 49.019531 C 95.089844 47.980469 95.941406 47.128906 96.980469 47.128906 C 98.019531 47.128906 98.871094 47.980469 98.871094 49.019531 C 98.871094 50.058594 98.019531 50.910156 96.980469 50.910156 C 95.941406 50.910156 95.089844 50.058594 95.089844 49.019531 "/>
<path fill-rule="nonzero" fill="rgb(73.33374%, 73.33374%, 73.33374%)" fill-opacity="1" d="M 51.53125 219.300781 C 51.53125 218.269531 52.378906 217.410156 53.421875 217.410156 C 54.460938 217.410156 55.308594 218.269531 55.308594 219.300781 C 55.308594 220.339844 54.460938 221.191406 53.421875 221.191406 C 52.378906 221.191406 51.53125 220.339844 51.53125 219.300781 "/>
<path fill-rule="nonzero" fill="rgb(73.33374%, 73.33374%, 73.33374%)" fill-opacity="1" d="M 248.078125 68.851562 C 248.078125 67.808594 248.929688 66.960938 249.96875 66.960938 C 251.011719 66.960938 251.859375 67.808594 251.859375 68.851562 C 251.859375 69.890625 251.011719 70.738281 249.96875 70.738281 C 248.929688 70.738281 248.078125 69.890625 248.078125 68.851562 "/>
<path fill-rule="nonzero" fill="rgb(73.33374%, 73.33374%, 73.33374%)" fill-opacity="1" d="M 114.359375 106.960938 C 114.359375 105.921875 115.210938 105.070312 116.25 105.070312 C 117.289062 105.070312 118.140625 105.921875 118.140625 106.960938 C 118.140625 108 117.289062 108.851562 116.25 108.851562 C 115.210938 108.851562 114.359375 108 114.359375 106.960938 "/>
<path fill-rule="nonzero" fill="rgb(73.33374%, 73.33374%, 73.33374%)" fill-opacity="1" d="M 41.070312 184.089844 C 41.070312 183.050781 41.921875 182.199219 42.960938 182.199219 C 44 182.199219 44.851562 183.050781 44.851562 184.089844 C 44.851562 185.128906 44 185.980469 42.960938 185.980469 C 41.921875 185.980469 41.070312 185.128906 41.070312 184.089844 "/>
<path fill-rule="nonzero" fill="rgb(73.33374%, 73.33374%, 73.33374%)" fill-opacity="1" d="M 119.238281 40.128906 C 119.238281 39.089844 120.089844 38.238281 121.128906 38.238281 C 122.171875 38.238281 123.019531 39.089844 123.019531 40.128906 C 123.019531 41.171875 122.171875 42.019531 121.128906 42.019531 C 120.089844 42.019531 119.238281 41.171875 119.238281 40.128906 "/>
<path fill-rule="nonzero" fill="rgb(73.33374%, 73.33374%, 73.33374%)" fill-opacity="1" d="M 257.128906 239.171875 C 257.128906 238.140625 257.980469 237.28125 259.019531 237.28125 C 260.058594 237.28125 260.910156 238.140625 260.910156 239.171875 C 260.910156 240.210938 260.058594 241.058594 259.019531 241.058594 C 257.980469 241.058594 257.128906 240.210938 257.128906 239.171875 "/>
<path fill-rule="nonzero" fill="rgb(73.33374%, 73.33374%, 73.33374%)" fill-opacity="1" d="M 57.070312 166.308594 C 57.070312 165.269531 57.921875 164.421875 58.960938 164.421875 C 60 164.421875 60.851562 165.269531 60.851562 166.308594 C 60.851562 167.351562 60 168.199219 58.960938 168.199219 C 57.921875 168.199219 57.070312 167.351562 57.070312 166.308594 "/>
<path fill-rule="nonzero" fill="rgb(73.33374%, 73.33374%, 73.33374%)" fill-opacity="1" d="M 179.03125 145.429688 C 179.03125 144.390625 179.878906 143.539062 180.921875 143.539062 C 181.960938 143.539062 182.808594 144.390625 182.808594 145.429688 C 182.808594 146.46875 181.960938 147.320312 180.921875 147.320312 C 179.878906 147.320312 179.03125 146.46875 179.03125 145.429688 "/>
<path fill-rule="nonzero" fill="rgb(73.33374%, 73.33374%, 73.33374%)" fill-opacity="1" d="M 262.109375 109.421875 C 262.109375 108.378906 262.960938 107.53125 264 107.53125 C 265.039062 107.53125 265.890625 108.378906 265.890625 109.421875 C 265.890625 110.460938 265.039062 111.308594 264 111.308594 C 262.960938 111.308594 262.109375 110.460938 262.109375 109.421875 "/>
<path fill-rule="nonzero" fill="rgb(73.33374%, 73.33374%, 73.33374%)" fill-opacity="1" d="M 25.160156 89.519531 C 25.160156 88.480469 26.011719 87.628906 27.050781 87.628906 C 28.089844 87.628906 28.941406 88.480469 28.941406 89.519531 C 28.941406 90.558594 28.089844 91.410156 27.050781 91.410156 C 26.011719 91.410156 25.160156 90.558594 25.160156 89.519531 "/>
<path fill-rule="nonzero" fill="rgb(73.33374%, 73.33374%, 73.33374%)" fill-opacity="1" d="M 59.460938 53.960938 C 59.460938 52.921875 60.308594 52.070312 61.351562 52.070312 C 62.378906 52.070312 63.238281 52.921875 63.238281 53.960938 C 63.238281 55 62.378906 55.851562 61.351562 55.851562 C 60.308594 55.851562 59.460938 55 59.460938 53.960938 "/>
<path fill-rule="nonzero" fill="rgb(73.33374%, 73.33374%, 73.33374%)" fill-opacity="1" d="M 194.660156 124.320312 C 194.660156 123.289062 195.511719 122.429688 196.550781 122.429688 C 197.578125 122.429688 198.441406 123.289062 198.441406 124.320312 C 198.441406 125.359375 197.578125 126.210938 196.550781 126.210938 C 195.511719 126.210938 194.660156 125.359375 194.660156 124.320312 "/>
<path fill-rule="nonzero" fill="rgb(73.33374%, 73.33374%, 73.33374%)" fill-opacity="1" d="M 130.160156 171.160156 C 130.160156 170.121094 131.011719 169.269531 132.050781 169.269531 C 133.089844 169.269531 133.941406 170.121094 133.941406 171.160156 C 133.941406 172.199219 133.089844 173.050781 132.050781 173.050781 C 131.011719 173.050781 130.160156 172.199219 130.160156 171.160156 "/>
<path fill-rule="nonzero" fill="rgb(73.33374%, 73.33374%, 73.33374%)" fill-opacity="1" d="M 229.050781 59.199219 C 229.050781 58.160156 229.898438 57.308594 230.941406 57.308594 C 231.980469 57.308594 232.828125 58.160156 232.828125 59.199219 C 232.828125 60.238281 231.980469 61.089844 230.941406 61.089844 C 229.898438 61.089844 229.050781 60.238281 229.050781 59.199219 "/>
<path fill-rule="nonzero" fill="rgb(73.33374%, 73.33374%, 73.33374%)" fill-opacity="1" d="M 176.550781 25.738281 C 176.550781 24.699219 177.398438 23.851562 178.441406 23.851562 C 179.480469 23.851562 180.328125 24.699219 180.328125 25.738281 C 180.328125 26.78125 179.480469 27.628906 178.441406 27.628906 C 177.398438 27.628906 176.550781 26.78125 176.550781 25.738281 "/>
<path fill-rule="nonzero" fill="rgb(73.33374%, 73.33374%, 73.33374%)" fill-opacity="1" d="M 234.558594 225.238281 C 234.558594 224.199219 235.410156 223.351562 236.449219 223.351562 C 237.488281 223.351562 238.339844 224.199219 238.339844 225.238281 C 238.339844 226.28125 237.488281 227.128906 236.449219 227.128906 C 235.410156 227.128906 234.558594 226.28125 234.558594 225.238281 "/>
<path fill-rule="nonzero" fill="rgb(73.33374%, 73.33374%, 73.33374%)" fill-opacity="1" d="M 164.191406 176.269531 C 164.191406 175.230469 165.039062 174.378906 166.078125 174.378906 C 167.121094 174.378906 167.96875 175.230469 167.96875 176.269531 C 167.96875 177.308594 167.121094 178.160156 166.078125 178.160156 C 165.039062 178.160156 164.191406 177.308594 164.191406 176.269531 "/>
<path fill-rule="nonzero" fill="rgb(73.33374%, 73.33374%, 73.33374%)" fill-opacity="1" d="M 45.238281 261.050781 C 45.238281 260.011719 46.089844 259.160156 47.128906 259.160156 C 48.171875 259.160156 49.019531 260.011719 49.019531 261.050781 C 49.019531 262.089844 48.171875 262.941406 47.128906 262.941406 C 46.089844 262.941406 45.238281 262.089844 45.238281 261.050781 "/>
<path fill-rule="nonzero" fill="rgb(73.33374%, 73.33374%, 73.33374%)" fill-opacity="1" d="M 53.808594 101.601562 C 53.808594 100.558594 54.660156 99.710938 55.699219 99.710938 C 56.738281 99.710938 57.589844 100.558594 57.589844 101.601562 C 57.589844 102.640625 56.738281 103.488281 55.699219 103.488281 C 54.660156 103.488281 53.808594 102.640625 53.808594 101.601562 "/>
<path fill="none" stroke-width="0.83" stroke-linecap="round" stroke-linejoin="round" stroke="rgb(13.33313%, 13.33313%, 13.33313%)" stroke-opacity="1" stroke-miterlimit="10" d="M 106.578125 79.839844 L 111.671875 71.019531 L 101.488281 71.019531 Z M 106.578125 79.839844 " transform="matrix(1, 0, 0, -1, 0, 288)"/>
<path fill="none" stroke-width="0.83" stroke-linecap="round" stroke-linejoin="round" stroke="rgb(13.33313%, 13.33313%, 13.33313%)" stroke-opacity="1" stroke-miterlimit="10" d="M 260.789062 260.328125 L 265.878906 251.519531 L 255.699219 251.519531 Z M 260.789062 260.328125 " transform="matrix(1, 0, 0, -1, 0, 288)"/>
<path fill="none" stroke-width="0.83" stroke-linecap="round" stroke-linejoin="round" stroke="rgb(13.33313%, 13.33313%, 13.33313%)" stroke-opacity="1" stroke-miterlimit="10" d="M 31.570312 232.71875 L 36.660156 223.898438 L 26.480469 223.898438 Z M 31.570312 232.71875 " transform="matrix(1, 0, 0, -1, 0, 288)"/>
<path fill="none" stroke-width="0.83" stroke-linecap="round" stroke-linejoin="round" stroke="rgb(13.33313%, 13.33313%, 13.33313%)" stroke-opacity="1" stroke-miterlimit="10" d="M 24 120.039062 L 29.089844 111.230469 L 18.910156 111.230469 Z M 24 120.039062 " transform="matrix(1, 0, 0, -1, 0, 288)"/>
<path fill="none" stroke-width="0.83" stroke-linecap="round" stroke-linejoin="round" stroke="rgb(13.33313%, 13.33313%, 13.33313%)" stroke-opacity="1" stroke-miterlimit="10" d="M 191.578125 206.769531 L 196.671875 197.949219 L 186.488281 197.949219 Z M 191.578125 206.769531 " transform="matrix(1, 0, 0, -1, 0, 288)"/>
<path fill="none" stroke-width="0.83" stroke-linecap="round" stroke-linejoin="round" stroke="rgb(13.33313%, 13.33313%, 13.33313%)" stroke-opacity="1" stroke-miterlimit="10" d="M 224.078125 91.511719 L 229.171875 82.691406 L 218.988281 82.691406 Z M 224.078125 91.511719 " transform="matrix(1, 0, 0, -1, 0, 288)"/>
<path fill="none" stroke-width="0.83" stroke-linecap="round" stroke-linejoin="round" stroke="rgb(13.33313%, 13.33313%, 13.33313%)" stroke-opacity="1" stroke-miterlimit="10" d="M 87.238281 145.308594 L 92.328125 136.5 L 82.148438 136.5 Z M 87.238281 145.308594 " transform="matrix(1, 0, 0, -1, 0, 288)"/>
<path fill="none" stroke-width="0.83" stroke-linecap="round" stroke-linejoin="round" stroke="rgb(13.33313%, 13.33313%, 13.33313%)" stroke-opacity="1" stroke-miterlimit="10" d="M 245.96875 164.46875 L 251.058594 155.648438 L 240.871094 155.648438 Z M 245.96875 164.46875 " transform="matrix(1, 0, 0, -1, 0, 288)"/>
<path fill="none" stroke-width="0.83" stroke-linecap="round" stroke-linejoin="round" stroke="rgb(13.33313%, 13.33313%, 13.33313%)" stroke-opacity="1" stroke-miterlimit="10" d="M 121.128906 253.75 L 126.21875 244.929688 L 116.039062 244.929688 Z M 121.128906 253.75 " transform="matrix(1, 0, 0, -1, 0, 288)"/>
<path fill="none" stroke-width="0.83" stroke-linecap="round" stroke-linejoin="round" stroke="rgb(13.33313%, 13.33313%, 13.33313%)" stroke-opacity="1" stroke-miterlimit="10" d="M 47.128906 32.828125 L 52.21875 24.011719 L 42.039062 24.011719 Z M 47.128906 32.828125 " transform="matrix(1, 0, 0, -1, 0, 288)"/>
<path fill="none" stroke-width="0.6" stroke-linecap="round" stroke-linejoin="round" stroke="rgb(39.99939%, 39.99939%, 39.99939%)" stroke-opacity="1" stroke-miterlimit="10" d="M 14.398438 14.398438 L 273.601562 14.398438 L 273.601562 273.601562 L 14.398438 273.601562 Z M 14.398438 14.398438 " transform="matrix(1, 0, 0, -1, 0, 288)"/>
</svg>
